<?xml version="1.0" encoding="utf-8"?>
<!-- Generator: Adobe Illustrator 24.1.1, SVG Export Plug-In . SVG Version: 6.00 Build 0)  -->
<svg version="1.1" id="Calque_1" xmlns="http://www.w3.org/2000/svg" xmlns:xlink="http://www.w3.org/1999/xlink" x="0px" y="0px"
	 viewBox="0 0 745.2 745.2" style="enable-background:new 0 0 745.2 745.2;" xml:space="preserve">
<style type="text/css">
	.st0{fill-rule:evenodd;clip-rule:evenodd;fill:#000000;}
</style>
<g transform="translate(600 600) scale(0.69 0.69) rotate(0) translate(-600 -600)">
	<desc>Created with Sketch.</desc>
	<g>
		<path class="st0" d="M800.6,294.1L662.1,432.6c-21,21-57,6.1-57-23.6v-97.2H311.8v293.3H409c29.8,0,44.7,36,23.6,57L294.1,800.7
			c-13,13-34.2,13-47.2,0L108.3,662.1c-21-21-6.1-57,23.6-57h97.2V311.8H-64.2V409c0,29.8-36,44.7-57,23.6l-120.8-120.8h-3.3v-3.3
			l-14.4-14.4c-13-13.1-13-34.2,0-47.2l14.4-14.4v-3.3h3.3l120.8-120.8c21-21,57-6.1,57,23.6v97.2h293.3V-64.2h-97.2
			c-29.8,0-44.7-36-23.6-57l138.5-138.5c13.1-13.1,34.2-13.1,47.2,0l138.5,138.5c21,21,6.1,57-23.6,57h-97.2v293.3h293.3v-97.2
			c0-29.8,36-44.7,57-23.6l138.5,138.5C813.7,259.9,813.7,281,800.6,294.1"/>
	</g>
</g>
</svg>
